# xmcd CD database file generated by Grip 2.96
# 
# Track frame offsets:
#       150
#       13355
#       24642
#       41430
#       54172
#       63137
#       76085
#       86792
#       101702
#       113207
#       127615
#       138960
#       149592
#       163725
#       175507
#       190095
#       204102
#       217662
#       231440
#       247022
#       258662
#       273265
#       289762
#       303970
#       321967
# 
# Disc length: 4528 seconds
# 
# Revision: 0
# Processed by: cddbd v1.4PL0 Copyright (c) Steve Scherf et al.
# Submitted via: Grip 2.96
# 
DISCID=5811ae19
DTITLE=The Impressions - Indelible Impressions - The Curtom Anthology 1968-76
DYEAR=1900
DGENRE=
TTITLE0=Fool for you
TTITLE1=I'm loving nothing
TTITLE2=Gone away
TTITLE3=This is my country
TTITLE4=The young mod's forgotten story
TTITLE5=My deceiving heart
TTITLE6=Seven years
TTITLE7=Choice of colours
TTITLE8=Wherever she leadeth me
TTITLE9=You want somebody else
TTITLE10=Soulful love
TTITLE11=Mighty mighty spade and whitey
TTITLE12=Gypsy woman
TTITLE13=Keep on pushing
TTITLE14=I'm so proud
TTITLE15=Say you love me
TTITLE16=I've been trying
TTITLE17=Amen 78
TTITLE18=Check out your mind
TTITLE19=Madam mary
TTITLE20=Can't you see
TTITLE21=You're really something, Sadie
TTITLE22=(Baby) turn on to me
TTITLE23=Ain't got time
TTITLE24=We must be in love
EXTD=
EXTT0=
EXTT1=
EXTT2=
EXTT3=
EXTT4=
EXTT5=
EXTT6=
EXTT7=
EXTT8=
EXTT9=
EXTT10=
EXTT11=
EXTT12=
EXTT13=
EXTT14=
EXTT15=
EXTT16=
EXTT17=
EXTT18=
EXTT19=
EXTT20=
EXTT21=
EXTT22=
EXTT23=
EXTT24=
PLAYORDER=
